REM DIRINDEX 1\2,1\3,1\4
REM DIRNAME folder01,folder02,folder03,folder04
TITLE ""
FILE "DISC1Track03.mp3" MP3
  TRACK 01 AUDIO
    TITLE "0:"
    INDEX 01 00:00:00
  TRACK 02 AUDIO
    TITLE "4:cjc038_0029"
    INDEX 01 00:00:05
  TRACK 03 AUDIO
    TITLE "0:"
    INDEX 01 00:02:55
  TRACK 04 AUDIO
    TITLE "2:cjc038_0030"
    INDEX 01 00:04:21
  TRACK 05 AUDIO
    TITLE "0:"
    INDEX 01 00:05:67
  TRACK 06 AUDIO
    TITLE "3:cjc038_0031"
    INDEX 01 00:06:02
  TRACK 07 AUDIO
    TITLE "0:"
    INDEX 01 00:07:33
  TRACK 08 AUDIO
    TITLE "2:cjc038_0032"
    INDEX 01 00:08:17
  TRACK 09 AUDIO
    TITLE "0:"
    INDEX 01 00:10:18
  TRACK 10 AUDIO
    TITLE "3:cjc038_0033"
    INDEX 01 00:10:23
  TRACK 11 AUDIO
    TITLE "0:"
    INDEX 01 00:12:18
  TRACK 12 AUDIO
    TITLE "2:cjc038_0034"
    INDEX 01 00:12:67
  TRACK 13 AUDIO
    TITLE "0:"
    INDEX 01 00:16:49
  TRACK 14 AUDIO
    TITLE "3:cjc038_0035"
    INDEX 01 00:16:53
  TRACK 15 AUDIO
    TITLE "0:"
    INDEX 01 00:20:14
  TRACK 16 AUDIO
    TITLE "2:cjc038_0036"
    INDEX 01 00:20:73
  TRACK 17 AUDIO
    TITLE "0:"
    INDEX 01 00:25:21
  TRACK 18 AUDIO
    TITLE "3:cjc038_0037"
    INDEX 01 00:25:23
  TRACK 19 AUDIO
    TITLE "0:"
    INDEX 01 00:29:40
  TRACK 20 AUDIO
    TITLE "2:cjc038_0038"
    INDEX 01 00:31:18
  TRACK 21 AUDIO
    TITLE "0:"
    INDEX 01 00:32:54
  TRACK 22 AUDIO
    TITLE "3:cjc038_0039"
    INDEX 01 00:32:60
  TRACK 23 AUDIO
    TITLE "0:"
    INDEX 01 00:34:12
  TRACK 24 AUDIO
    TITLE "2:cjc038_0040"
    INDEX 01 00:34:73
  TRACK 25 AUDIO
    TITLE "0:"
    INDEX 01 00:37:22
  TRACK 26 AUDIO
    TITLE "3:cjc038_0041"
    INDEX 01 00:37:30
  TRACK 27 AUDIO
    TITLE "0:"
    INDEX 01 00:39:45
  TRACK 28 AUDIO
    TITLE "2:cjc038_0042"
    INDEX 01 00:40:26
  TRACK 29 AUDIO
    TITLE "0:"
    INDEX 01 00:42:45
  TRACK 30 AUDIO
    TITLE "3:cjc038_0043"
    INDEX 01 00:42:53
  TRACK 31 AUDIO
    TITLE "0:"
    INDEX 01 00:44:61
  TRACK 32 AUDIO
    TITLE "2:cjc038_0044"
    INDEX 01 00:45:43
  TRACK 33 AUDIO
    TITLE "0:"
    INDEX 01 00:47:72
  TRACK 34 AUDIO
    TITLE "3:cjc038_0045"
    INDEX 01 00:48:08
  TRACK 35 AUDIO
    TITLE "0:"
    INDEX 01 00:50:21
  TRACK 36 AUDIO
    TITLE "2:cjc038_0046"
    INDEX 01 00:51:07
  TRACK 37 AUDIO
    TITLE "0:"
    INDEX 01 00:53:57
  TRACK 38 AUDIO
    TITLE "3:cjc038_0047"
    INDEX 01 00:53:64
  TRACK 39 AUDIO
    TITLE "0:"
    INDEX 01 00:56:29
  TRACK 40 AUDIO
    TITLE "2:cjc038_0048"
    INDEX 01 00:57:13
  TRACK 41 AUDIO
    TITLE "0:"
    INDEX 01 00:59:57
  TRACK 42 AUDIO
    TITLE "3:cjc038_0049"
    INDEX 01 00:59:65
  TRACK 43 AUDIO
    TITLE "0:"
    INDEX 01 01:02:26
  TRACK 44 AUDIO
    TITLE "2:cjc038_0050"
    INDEX 01 01:03:08
  TRACK 45 AUDIO
    TITLE "0:"
    INDEX 01 01:05:68
  TRACK 46 AUDIO
    TITLE "3:cjc038_0051"
    INDEX 01 01:06:04
  TRACK 47 AUDIO
    TITLE "0:"
    INDEX 01 01:08:35
  TRACK 48 AUDIO
    TITLE "2:cjc038_0052"
    INDEX 01 01:09:28
  TRACK 49 AUDIO
    TITLE "0:"
    INDEX 01 01:11:39
  TRACK 50 AUDIO
    TITLE "3:cjc038_0053"
    INDEX 01 01:11:43
  TRACK 51 AUDIO
    TITLE "0:"
    INDEX 01 01:13:38
  TRACK 52 AUDIO
    TITLE "2:cjc038_0054"
    INDEX 01 01:14:23
  TRACK 53 AUDIO
    TITLE "0:"
    INDEX 01 01:15:72
  TRACK 54 AUDIO
    TITLE "3:cjc038_0055"
    INDEX 01 01:16:07
  TRACK 55 AUDIO
    TITLE "0:"
    INDEX 01 01:17:49
  TRACK 56 AUDIO
    TITLE "2:cjc038_0056"
    INDEX 01 01:18:27
  TRACK 57 AUDIO
    TITLE "0:"
    INDEX 01 01:20:42
  TRACK 58 AUDIO
    TITLE "3:cjc038_0057"
    INDEX 01 01:20:53
  TRACK 59 AUDIO
    TITLE "0:"
    INDEX 01 01:22:50
  TRACK 60 AUDIO
    TITLE "2:cjc038_0058"
    INDEX 01 01:23:42
  TRACK 61 AUDIO
    TITLE "0:"
    INDEX 01 01:28:27
  TRACK 62 AUDIO
    TITLE "3:cjc038_0059"
    INDEX 01 01:28:41
  TRACK 63 AUDIO
    TITLE "0:"
    INDEX 01 01:33:09
  TRACK 64 AUDIO
    TITLE "2:cjc038_0060"
    INDEX 01 01:33:68
  TRACK 65 AUDIO
    TITLE "0:"
    INDEX 01 01:36:15
  TRACK 66 AUDIO
    TITLE "3:cjc038_0061"
    INDEX 01 01:36:29
  TRACK 67 AUDIO
    TITLE "0:"
    INDEX 01 01:38:36
  TRACK 68 AUDIO
    TITLE "2:cjc038_0062"
    INDEX 01 01:39:23
  TRACK 69 AUDIO
    TITLE "0:"
    INDEX 01 01:42:69
  TRACK 70 AUDIO
    TITLE "3:cjc038_0063"
    INDEX 01 01:43:03
  TRACK 71 AUDIO
    TITLE "0:"
    INDEX 01 01:46:39
  TRACK 72 AUDIO
    TITLE "2:cjc038_0064"
    INDEX 01 01:47:23
  TRACK 73 AUDIO
    TITLE "0:"
    INDEX 01 01:49:65
  TRACK 74 AUDIO
    TITLE "3:cjc038_0065"
    INDEX 01 01:50:00
  TRACK 75 AUDIO
    TITLE "0:"
    INDEX 01 01:52:30
  TRACK 76 AUDIO
    TITLE "2:cjc038_0066"
    INDEX 01 01:53:18
  TRACK 77 AUDIO
    TITLE "0:"
    INDEX 01 01:57:57
  TRACK 78 AUDIO
    TITLE "3:cjc038_0067"
    INDEX 01 01:57:72
  TRACK 79 AUDIO
    TITLE "0:"
    INDEX 01 02:02:18
  TRACK 80 AUDIO
    TITLE "2:cjc038_0068"
    INDEX 01 02:03:02
  TRACK 81 AUDIO
    TITLE "0:"
    INDEX 01 02:07:26
  TRACK 82 AUDIO
    TITLE "3:cjc038_0069"
    INDEX 01 02:07:33
  TRACK 83 AUDIO
    TITLE "0:"
    INDEX 01 02:11:45
  TRACK 84 AUDIO
    TITLE "2:cjc038_0070"
    INDEX 01 02:12:27
  TRACK 85 AUDIO
    TITLE "0:"
    INDEX 01 02:16:40
  TRACK 86 AUDIO
    TITLE "3:cjc038_0071"
    INDEX 01 02:16:48
  TRACK 87 AUDIO
    TITLE "0:"
    INDEX 01 02:20:42
